<svg width="86" height="86" viewBox="0 0 86 86" fill="none" xmlns="http://www.w3.org/2000/svg">
<path d="M58.7667 75.9667H55.9V68.8V14.3333C55.9 14.0467 55.7567 13.6167 55.6133 13.4733L51.4567 1.00333C51.3134 0.43 50.74 0 50.1667 0C49.5933 0 49.02 0.43 48.8767 1.00333L44.72 13.4733C44.5767 13.76 44.4333 14.0467 44.4333 14.3333V68.8V84.5667C44.4333 85.4267 45.0067 86 45.8667 86H54.4667C55.3267 86 55.9 85.4267 55.9 84.5667V78.8333H60.2C61.06 78.8333 61.6334 78.26 61.6334 77.4V34.4H58.7667V75.9667ZM47.3 15.7667H53.0333V67.3667H47.3V15.7667ZM50.1667 6.02L52.46 12.9H47.8734L50.1667 6.02ZM53.0333 83.1333H47.3V70.2333H53.0333V83.1333Z" fill="#CDA274"/>
<path d="M84.5667 0H68.8C67.94 0 67.3667 0.573333 67.3667 1.43333V84.5667C67.3667 85.4267 67.94 86 68.8 86H84.5667C85.4267 86 86 85.4267 86 84.5667V1.43333C86 0.573333 85.4267 0 84.5667 0ZM83.1334 83.1333H70.2334V73.1H77.4V70.2333H70.2334V58.7667H77.4V55.9H70.2334V44.4333H77.4V41.5667H70.2334V30.1H77.4V27.2333H70.2334V15.7667H77.4V12.9H70.2334V2.86667H83.1334V83.1333Z" fill="#CDA274"/>
<path d="M20.0667 14.3334C9.03 14.3334 0 23.3634 0 34.4C0 42.14 4.44333 49.1634 11.4667 52.46V63.0667V70.2334C11.4667 71.0934 12.04 71.6667 12.9 71.6667H18.6333V75.9667H21.5V71.6667H27.2333C28.0933 71.6667 28.6667 71.0934 28.6667 70.2334V63.0667V52.46C35.69 49.1634 40.1333 42.14 40.1333 34.4C40.1333 23.3634 31.1033 14.3334 20.0667 14.3334ZM25.8 68.8H14.3333V64.5H25.8V68.8ZM26.66 50.31C26.0867 50.4534 25.8 51.0267 25.8 51.6V61.6334H14.3333V58.7667H21.5V55.9H14.3333V51.6C14.3333 51.0267 14.0467 50.4534 13.4733 50.31C7.02333 47.5867 2.86667 41.28 2.86667 34.4C2.86667 24.94 10.6067 17.2 20.0667 17.2C29.5267 17.2 37.2667 24.94 37.2667 34.4C37.2667 41.28 33.11 47.5867 26.66 50.31Z" fill="#CDA274"/>
<path d="M23.3634 26.23L20.0667 29.5266L16.77 26.23L14.7634 28.2366L18.6334 32.1066V47.3H21.5V32.1066L25.37 28.2366L23.3634 26.23Z" fill="#CDA274"/>
</svg>
